<?xml version="1.0" standalone="no"?>
<!DOCTYPE svg PUBLIC "-//W3C//DTD SVG 20010904//EN"
 "http://www.w3.org/TR/2001/REC-SVG-20010904/DTD/svg10.dtd">
<svg version="1.0" xmlns="http://www.w3.org/2000/svg"
 width="828.000000pt" height="828.000000pt" viewBox="0 0 828.000000 828.000000"
 preserveAspectRatio="xMidYMid meet">
<metadata>
Created by potrace 1.16, written by Peter Selinger 2001-2019
</metadata>
<g transform="translate(0.000000,828.000000) scale(0.100000,-0.100000)"
fill="#000000" stroke="none">
<path d="M0 2942 l0 -2942 1856 0 1856 0 -14 23 c-8 12 -116 184 -240 382
-124 198 -303 484 -398 635 -95 151 -305 484 -465 740 -160 256 -354 564 -430
685 -219 349 -399 633 -459 725 -31 47 -56 90 -56 96 0 28 502 415 854 658
136 93 172 114 182 104 6 -7 101 -157 211 -333 213 -341 1038 -1656 1233
-1965 64 -102 203 -322 308 -490 105 -168 197 -313 204 -323 13 -18 25 -13
204 81 1211 637 2117 1392 2447 2040 133 260 177 473 157 759 -28 391 -156
696 -398 954 -226 240 -545 415 -947 519 -432 112 -970 138 -1530 74 -867 -98
-1947 -461 -3118 -1047 -197 -99 -359 -178 -361 -176 -1 2 -26 42 -56 89 -29
47 -186 297 -348 555 -163 259 -378 603 -480 765 -101 162 -190 303 -198 314
-12 18 -14 -386 -14 -2922z"/>
<path d="M8246 2740 c-110 -201 -311 -455 -551 -695 -273 -274 -521 -470 -850
-676 -94 -59 -330 -207 -525 -329 -580 -364 -1007 -632 -1320 -828 -162 -101
-302 -191 -310 -198 -12 -12 252 -14 1788 -14 l1802 0 0 1395 c0 767 -2 1395
-3 1395 -2 0 -16 -22 -31 -50z"/>
</g>
</svg>
